<svg width="260" height="141" viewBox="0 0 260 141" fill="none" xmlns="http://www.w3.org/2000/svg">
    <rect width="260" height="141" fill="white" />
    <path
        d="M144.2 46.381C138.806 46.381 133.316 46.1613 128.18 44.7266C123.14 43.3242 118.513 40.6035 114.389 37.4562C111.689 35.4076 109.234 33.779 105.728 34.0246C102.298 34.2075 99.0173 35.4922 96.3711 37.6888C91.9117 41.6052 92.5819 48.8562 94.367 53.9423C97.0478 61.6133 105.206 66.9514 112.14 70.4154C120.15 74.4286 128.953 76.7552 137.775 78.0994C145.508 79.2756 155.445 80.1351 162.147 75.0684C168.302 70.4154 169.99 59.7909 168.482 52.6174C168.117 50.4963 166.991 48.582 165.318 47.2341C160.994 44.0674 154.543 46.1807 149.684 46.2905C147.88 46.3293 146.043 46.3681 144.2 46.381Z"
        fill="#F2F2F2" />
    <path
        d="M131 91C144.255 91 155 90.3284 155 89.5C155 88.6716 144.255 88 131 88C117.745 88 107 88.6716 107 89.5C107 90.3284 117.745 91 131 91Z"
        fill="#F2F2F2" />
    <path
        d="M130.5 26C130.776 26 131 25.7761 131 25.5C131 25.2239 130.776 25 130.5 25C130.224 25 130 25.2239 130 25.5C130 25.7761 130.224 26 130.5 26Z"
        fill="#CFCFCF" />
    <path
        d="M130.5 21C130.776 21 131 20.7761 131 20.5C131 20.2239 130.776 20 130.5 20C130.224 20 130 20.2239 130 20.5C130 20.7761 130.224 21 130.5 21Z"
        fill="#CFCFCF" />
    <path
        d="M131 81C131.552 81 132 80.7761 132 80.5C132 80.2239 131.552 80 131 80C130.448 80 130 80.2239 130 80.5C130 80.7761 130.448 81 131 81Z"
        fill="#CFCFCF" />
    <path d="M131 18V21" stroke="#BABABA" stroke-linecap="round" stroke-linejoin="round" />
    <path d="M130 20H132" stroke="#BABABA" stroke-linecap="round" stroke-linejoin="round" />
    <path d="M131 30V33" stroke="#BABABA" stroke-linecap="round" stroke-linejoin="round" />
    <path d="M129 31H132" stroke="#BABABA" stroke-linecap="round" stroke-linejoin="round" />
    <path d="M131 69V71" stroke="#BABABA" stroke-linecap="round" stroke-linejoin="round" />
    <path d="M129 70H132" stroke="#BABABA" stroke-linecap="round" stroke-linejoin="round" />
    <path d="M131 40V43" stroke="#BABABA" stroke-linecap="round" stroke-linejoin="round" />
    <path d="M129 41H132" stroke="#BABABA" stroke-linecap="round" stroke-linejoin="round" />
    <path
        d="M144.28 23.8237L111.811 28.0873C109.706 28.3637 108.224 30.2937 108.5 32.3982L113.449 70.0872C113.726 72.1917 115.656 73.6737 117.76 73.3973L150.23 69.1336C152.334 68.8573 153.816 66.9272 153.54 64.8228L148.591 27.1338C148.315 25.0293 146.384 23.5473 144.28 23.8237Z"
        fill="#D2D2D2" />
    <path
        d="M147.198 29H114.802C112.702 29 111 30.732 111 32.8685V71.1315C111 73.268 112.702 75 114.802 75H147.198C149.298 75 151 73.268 151 71.1315V32.8685C151 30.732 149.298 29 147.198 29Z"
        fill="white" stroke="#BABABA" stroke-linecap="round" stroke-linejoin="round" />
    <path
        d="M115 59.7569L121.622 48.8954C121.687 48.7367 121.797 48.6011 121.939 48.5056C122.081 48.4102 122.248 48.3592 122.419 48.3592C122.589 48.3592 122.756 48.4102 122.898 48.5056C123.04 48.6011 123.15 48.7367 123.215 48.8954L126.97 55.0522C127.034 55.2114 127.144 55.3478 127.285 55.4438C127.426 55.5398 127.593 55.5912 127.764 55.5912C127.934 55.5912 128.101 55.5398 128.242 55.4438C128.384 55.3478 128.493 55.2114 128.557 55.0522L134.983 44.539C135.047 44.3798 135.157 44.2434 135.298 44.1474C135.439 44.0513 135.606 44 135.777 44C135.947 44 136.114 44.0513 136.255 44.1474C136.397 44.2434 136.506 44.3798 136.57 44.539L146 60L115 59.7569Z"
        fill="white" stroke="#BABABA" stroke-linecap="round" stroke-linejoin="round" />
    <path
        d="M130.5 47C131.881 47 133 46.1046 133 45C133 43.8954 131.881 43 130.5 43C129.119 43 128 43.8954 128 45C128 46.1046 129.119 47 130.5 47Z"
        fill="white" stroke="#BABABA" stroke-linecap="round" stroke-linejoin="round" />
    <path
        d="M93.9 111.77V119H93.21C93.1033 119 93.0133 118.983 92.94 118.95C92.87 118.913 92.8017 118.853 92.735 118.77L88.96 113.95C88.98 114.17 88.99 114.373 88.99 114.56V119H87.805V111.77H88.51C88.5667 111.77 88.615 111.773 88.655 111.78C88.6983 111.783 88.735 111.793 88.765 111.81C88.7983 111.823 88.83 111.845 88.86 111.875C88.89 111.902 88.9233 111.938 88.96 111.985L92.75 116.825C92.74 116.708 92.7317 116.593 92.725 116.48C92.7183 116.367 92.715 116.262 92.715 116.165V111.77H93.9ZM97.4288 113.79C97.8088 113.79 98.1538 113.852 98.4638 113.975C98.7772 114.098 99.0438 114.273 99.2638 114.5C99.4872 114.727 99.6588 115.003 99.7788 115.33C99.8988 115.657 99.9588 116.022 99.9588 116.425C99.9588 116.832 99.8988 117.198 99.7788 117.525C99.6588 117.852 99.4872 118.13 99.2638 118.36C99.0438 118.59 98.7772 118.767 98.4638 118.89C98.1538 119.013 97.8088 119.075 97.4288 119.075C97.0455 119.075 96.6972 119.013 96.3838 118.89C96.0705 118.767 95.8022 118.59 95.5788 118.36C95.3588 118.13 95.1872 117.852 95.0638 117.525C94.9438 117.198 94.8838 116.832 94.8838 116.425C94.8838 116.022 94.9438 115.657 95.0638 115.33C95.1872 115.003 95.3588 114.727 95.5788 114.5C95.8022 114.273 96.0705 114.098 96.3838 113.975C96.6972 113.852 97.0455 113.79 97.4288 113.79ZM97.4288 118.125C97.8555 118.125 98.1705 117.982 98.3738 117.695C98.5805 117.408 98.6838 116.988 98.6838 116.435C98.6838 115.882 98.5805 115.46 98.3738 115.17C98.1705 114.88 97.8555 114.735 97.4288 114.735C96.9955 114.735 96.6738 114.882 96.4638 115.175C96.2572 115.465 96.1538 115.885 96.1538 116.435C96.1538 116.985 96.2572 117.405 96.4638 117.695C96.6738 117.982 96.9955 118.125 97.4288 118.125ZM104.878 119H103.528V111.77H104.878V119ZM106.223 119V113.87H106.978C107.138 113.87 107.243 113.945 107.293 114.095L107.373 114.475C107.463 114.375 107.557 114.283 107.653 114.2C107.753 114.117 107.858 114.045 107.968 113.985C108.082 113.925 108.202 113.878 108.328 113.845C108.458 113.808 108.6 113.79 108.753 113.79C109.077 113.79 109.342 113.878 109.548 114.055C109.758 114.228 109.915 114.46 110.018 114.75C110.098 114.58 110.198 114.435 110.318 114.315C110.438 114.192 110.57 114.092 110.713 114.015C110.857 113.938 111.008 113.882 111.168 113.845C111.332 113.808 111.495 113.79 111.658 113.79C111.942 113.79 112.193 113.833 112.413 113.92C112.633 114.007 112.818 114.133 112.968 114.3C113.118 114.467 113.232 114.67 113.308 114.91C113.388 115.15 113.428 115.425 113.428 115.735V119H112.193V115.735C112.193 115.408 112.122 115.163 111.978 115C111.835 114.833 111.625 114.75 111.348 114.75C111.222 114.75 111.103 114.772 110.993 114.815C110.887 114.858 110.792 114.922 110.708 115.005C110.628 115.085 110.565 115.187 110.518 115.31C110.472 115.433 110.448 115.575 110.448 115.735V119H109.208V115.735C109.208 115.392 109.138 115.142 108.998 114.985C108.862 114.828 108.66 114.75 108.393 114.75C108.213 114.75 108.045 114.795 107.888 114.885C107.735 114.972 107.592 115.092 107.458 115.245V119H106.223ZM117.312 116.81C116.956 116.827 116.656 116.858 116.412 116.905C116.169 116.948 115.974 117.005 115.827 117.075C115.681 117.145 115.576 117.227 115.512 117.32C115.449 117.413 115.417 117.515 115.417 117.625C115.417 117.842 115.481 117.997 115.607 118.09C115.737 118.183 115.906 118.23 116.112 118.23C116.366 118.23 116.584 118.185 116.767 118.095C116.954 118.002 117.136 117.862 117.312 117.675V116.81ZM114.482 114.585C115.072 114.045 115.782 113.775 116.612 113.775C116.912 113.775 117.181 113.825 117.417 113.925C117.654 114.022 117.854 114.158 118.017 114.335C118.181 114.508 118.304 114.717 118.387 114.96C118.474 115.203 118.517 115.47 118.517 115.76V119H117.957C117.841 119 117.751 118.983 117.687 118.95C117.624 118.913 117.574 118.842 117.537 118.735L117.427 118.365C117.297 118.482 117.171 118.585 117.047 118.675C116.924 118.762 116.796 118.835 116.662 118.895C116.529 118.955 116.386 119 116.232 119.03C116.082 119.063 115.916 119.08 115.732 119.08C115.516 119.08 115.316 119.052 115.132 118.995C114.949 118.935 114.791 118.847 114.657 118.73C114.524 118.613 114.421 118.468 114.347 118.295C114.274 118.122 114.237 117.92 114.237 117.69C114.237 117.56 114.259 117.432 114.302 117.305C114.346 117.175 114.416 117.052 114.512 116.935C114.612 116.818 114.741 116.708 114.897 116.605C115.054 116.502 115.246 116.412 115.472 116.335C115.702 116.258 115.969 116.197 116.272 116.15C116.576 116.1 116.922 116.07 117.312 116.06V115.76C117.312 115.417 117.239 115.163 117.092 115C116.946 114.833 116.734 114.75 116.457 114.75C116.257 114.75 116.091 114.773 115.957 114.82C115.827 114.867 115.712 114.92 115.612 114.98C115.512 115.037 115.421 115.088 115.337 115.135C115.257 115.182 115.167 115.205 115.067 115.205C114.981 115.205 114.907 115.183 114.847 115.14C114.787 115.093 114.739 115.04 114.702 114.98L114.482 114.585ZM121.555 116.31C121.709 116.31 121.842 116.29 121.955 116.25C122.069 116.207 122.162 116.148 122.235 116.075C122.312 116.002 122.369 115.913 122.405 115.81C122.445 115.707 122.465 115.593 122.465 115.47C122.465 115.217 122.389 115.017 122.235 114.87C122.085 114.72 121.859 114.645 121.555 114.645C121.252 114.645 121.024 114.72 120.87 114.87C120.72 115.017 120.645 115.217 120.645 115.47C120.645 115.59 120.664 115.702 120.7 115.805C120.74 115.908 120.797 115.998 120.87 116.075C120.947 116.148 121.042 116.207 121.155 116.25C121.272 116.29 121.405 116.31 121.555 116.31ZM122.95 119.23C122.95 119.13 122.92 119.048 122.86 118.985C122.8 118.922 122.719 118.873 122.615 118.84C122.512 118.803 122.39 118.777 122.25 118.76C122.114 118.743 121.967 118.732 121.81 118.725C121.657 118.715 121.497 118.707 121.33 118.7C121.167 118.693 121.007 118.68 120.85 118.66C120.714 118.737 120.602 118.827 120.515 118.93C120.432 119.033 120.39 119.153 120.39 119.29C120.39 119.38 120.412 119.463 120.455 119.54C120.502 119.62 120.574 119.688 120.67 119.745C120.77 119.802 120.899 119.845 121.055 119.875C121.212 119.908 121.404 119.925 121.63 119.925C121.86 119.925 122.059 119.907 122.225 119.87C122.392 119.837 122.529 119.788 122.635 119.725C122.745 119.665 122.825 119.592 122.875 119.505C122.925 119.422 122.95 119.33 122.95 119.23ZM124.18 114.045V114.505C124.18 114.652 124.092 114.742 123.915 114.775L123.455 114.86C123.525 115.037 123.56 115.23 123.56 115.44C123.56 115.693 123.509 115.923 123.405 116.13C123.305 116.333 123.165 116.507 122.985 116.65C122.805 116.793 122.592 116.905 122.345 116.985C122.102 117.062 121.839 117.1 121.555 117.1C121.455 117.1 121.359 117.095 121.265 117.085C121.172 117.075 121.08 117.062 120.99 117.045C120.83 117.142 120.75 117.25 120.75 117.37C120.75 117.473 120.797 117.55 120.89 117.6C120.987 117.647 121.114 117.68 121.27 117.7C121.427 117.72 121.605 117.733 121.805 117.74C122.005 117.743 122.21 117.753 122.42 117.77C122.63 117.787 122.835 117.817 123.035 117.86C123.235 117.9 123.414 117.965 123.57 118.055C123.727 118.145 123.852 118.268 123.945 118.425C124.042 118.578 124.09 118.777 124.09 119.02C124.09 119.247 124.034 119.467 123.92 119.68C123.81 119.893 123.649 120.083 123.435 120.25C123.225 120.417 122.965 120.55 122.655 120.65C122.349 120.753 121.999 120.805 121.605 120.805C121.219 120.805 120.882 120.767 120.595 120.69C120.309 120.617 120.07 120.517 119.88 120.39C119.69 120.267 119.549 120.123 119.455 119.96C119.362 119.797 119.315 119.627 119.315 119.45C119.315 119.21 119.387 119.01 119.53 118.85C119.677 118.687 119.877 118.557 120.13 118.46C119.994 118.39 119.885 118.297 119.805 118.18C119.725 118.063 119.685 117.91 119.685 117.72C119.685 117.643 119.699 117.565 119.725 117.485C119.755 117.402 119.797 117.32 119.85 117.24C119.907 117.16 119.977 117.085 120.06 117.015C120.144 116.942 120.242 116.877 120.355 116.82C120.095 116.68 119.89 116.493 119.74 116.26C119.594 116.027 119.52 115.753 119.52 115.44C119.52 115.187 119.57 114.958 119.67 114.755C119.774 114.548 119.915 114.373 120.095 114.23C120.279 114.083 120.494 113.972 120.74 113.895C120.99 113.818 121.262 113.78 121.555 113.78C121.775 113.78 121.982 113.803 122.175 113.85C122.369 113.893 122.545 113.958 122.705 114.045H124.18ZM128.181 115.845C128.181 115.685 128.157 115.535 128.111 115.395C128.067 115.252 128.001 115.127 127.911 115.02C127.821 114.913 127.706 114.83 127.566 114.77C127.429 114.707 127.269 114.675 127.086 114.675C126.729 114.675 126.447 114.777 126.241 114.98C126.037 115.183 125.907 115.472 125.851 115.845H128.181ZM125.826 116.59C125.846 116.853 125.892 117.082 125.966 117.275C126.039 117.465 126.136 117.623 126.256 117.75C126.376 117.873 126.517 117.967 126.681 118.03C126.847 118.09 127.031 118.12 127.231 118.12C127.431 118.12 127.602 118.097 127.746 118.05C127.892 118.003 128.019 117.952 128.126 117.895C128.236 117.838 128.331 117.787 128.411 117.74C128.494 117.693 128.574 117.67 128.651 117.67C128.754 117.67 128.831 117.708 128.881 117.785L129.236 118.235C129.099 118.395 128.946 118.53 128.776 118.64C128.606 118.747 128.427 118.833 128.241 118.9C128.057 118.963 127.869 119.008 127.676 119.035C127.486 119.062 127.301 119.075 127.121 119.075C126.764 119.075 126.432 119.017 126.126 118.9C125.819 118.78 125.552 118.605 125.326 118.375C125.099 118.142 124.921 117.855 124.791 117.515C124.661 117.172 124.596 116.775 124.596 116.325C124.596 115.975 124.652 115.647 124.766 115.34C124.879 115.03 125.041 114.762 125.251 114.535C125.464 114.305 125.722 114.123 126.026 113.99C126.332 113.857 126.677 113.79 127.061 113.79C127.384 113.79 127.682 113.842 127.956 113.945C128.229 114.048 128.464 114.2 128.661 114.4C128.857 114.597 129.011 114.84 129.121 115.13C129.234 115.417 129.291 115.745 129.291 116.115C129.291 116.302 129.271 116.428 129.231 116.495C129.191 116.558 129.114 116.59 129.001 116.59H125.826ZM136.332 116.27L135.452 113.865C135.409 113.758 135.364 113.632 135.317 113.485C135.27 113.338 135.224 113.18 135.177 113.01C135.134 113.18 135.089 113.34 135.042 113.49C134.995 113.637 134.95 113.765 134.907 113.875L134.032 116.27H136.332ZM138.707 119H137.667C137.55 119 137.455 118.972 137.382 118.915C137.309 118.855 137.254 118.782 137.217 118.695L136.677 117.22H133.682L133.142 118.695C133.115 118.772 133.064 118.842 132.987 118.905C132.91 118.968 132.815 119 132.702 119H131.652L134.497 111.77H135.867L138.707 119ZM143.465 113.87L141.43 119H140.31L138.275 113.87H139.295C139.389 113.87 139.465 113.892 139.525 113.935C139.589 113.978 139.63 114.033 139.65 114.1L140.64 116.84C140.694 117 140.74 117.157 140.78 117.31C140.82 117.463 140.855 117.617 140.885 117.77C140.919 117.617 140.955 117.463 140.995 117.31C141.035 117.157 141.084 117 141.14 116.84L142.15 114.1C142.174 114.033 142.215 113.978 142.275 113.935C142.335 113.892 142.407 113.87 142.49 113.87H143.465ZM146.707 116.81C146.35 116.827 146.05 116.858 145.807 116.905C145.563 116.948 145.368 117.005 145.222 117.075C145.075 117.145 144.97 117.227 144.907 117.32C144.843 117.413 144.812 117.515 144.812 117.625C144.812 117.842 144.875 117.997 145.002 118.09C145.132 118.183 145.3 118.23 145.507 118.23C145.76 118.23 145.978 118.185 146.162 118.095C146.348 118.002 146.53 117.862 146.707 117.675V116.81ZM143.877 114.585C144.467 114.045 145.177 113.775 146.007 113.775C146.307 113.775 146.575 113.825 146.812 113.925C147.048 114.022 147.248 114.158 147.412 114.335C147.575 114.508 147.698 114.717 147.782 114.96C147.868 115.203 147.912 115.47 147.912 115.76V119H147.352C147.235 119 147.145 118.983 147.082 118.95C147.018 118.913 146.968 118.842 146.932 118.735L146.822 118.365C146.692 118.482 146.565 118.585 146.442 118.675C146.318 118.762 146.19 118.835 146.057 118.895C145.923 118.955 145.78 119 145.627 119.03C145.477 119.063 145.31 119.08 145.127 119.08C144.91 119.08 144.71 119.052 144.527 118.995C144.343 118.935 144.185 118.847 144.052 118.73C143.918 118.613 143.815 118.468 143.742 118.295C143.668 118.122 143.632 117.92 143.632 117.69C143.632 117.56 143.653 117.432 143.697 117.305C143.74 117.175 143.81 117.052 143.907 116.935C144.007 116.818 144.135 116.708 144.292 116.605C144.448 116.502 144.64 116.412 144.867 116.335C145.097 116.258 145.363 116.197 145.667 116.15C145.97 116.1 146.317 116.07 146.707 116.06V115.76C146.707 115.417 146.633 115.163 146.487 115C146.34 114.833 146.128 114.75 145.852 114.75C145.652 114.75 145.485 114.773 145.352 114.82C145.222 114.867 145.107 114.92 145.007 114.98C144.907 115.037 144.815 115.088 144.732 115.135C144.652 115.182 144.562 115.205 144.462 115.205C144.375 115.205 144.302 115.183 144.242 115.14C144.182 115.093 144.133 115.04 144.097 114.98L143.877 114.585ZM150.355 113.87V119H149.115V113.87H150.355ZM150.525 112.375C150.525 112.482 150.503 112.582 150.46 112.675C150.417 112.768 150.358 112.85 150.285 112.92C150.215 112.99 150.132 113.047 150.035 113.09C149.938 113.13 149.835 113.15 149.725 113.15C149.618 113.15 149.517 113.13 149.42 113.09C149.327 113.047 149.245 112.99 149.175 112.92C149.105 112.85 149.048 112.768 149.005 112.675C148.965 112.582 148.945 112.482 148.945 112.375C148.945 112.265 148.965 112.162 149.005 112.065C149.048 111.968 149.105 111.885 149.175 111.815C149.245 111.745 149.327 111.69 149.42 111.65C149.517 111.607 149.618 111.585 149.725 111.585C149.835 111.585 149.938 111.607 150.035 111.65C150.132 111.69 150.215 111.745 150.285 111.815C150.358 111.885 150.417 111.968 150.46 112.065C150.503 112.162 150.525 112.265 150.525 112.375ZM152.864 111.57V119H151.629V111.57H152.864ZM156.804 116.81C156.448 116.827 156.148 116.858 155.904 116.905C155.661 116.948 155.466 117.005 155.319 117.075C155.173 117.145 155.068 117.227 155.004 117.32C154.941 117.413 154.909 117.515 154.909 117.625C154.909 117.842 154.973 117.997 155.099 118.09C155.229 118.183 155.398 118.23 155.604 118.23C155.858 118.23 156.076 118.185 156.259 118.095C156.446 118.002 156.628 117.862 156.804 117.675V116.81ZM153.974 114.585C154.564 114.045 155.274 113.775 156.104 113.775C156.404 113.775 156.673 113.825 156.909 113.925C157.146 114.022 157.346 114.158 157.509 114.335C157.673 114.508 157.796 114.717 157.879 114.96C157.966 115.203 158.009 115.47 158.009 115.76V119H157.449C157.333 119 157.243 118.983 157.179 118.95C157.116 118.913 157.066 118.842 157.029 118.735L156.919 118.365C156.789 118.482 156.663 118.585 156.539 118.675C156.416 118.762 156.288 118.835 156.154 118.895C156.021 118.955 155.878 119 155.724 119.03C155.574 119.063 155.408 119.08 155.224 119.08C155.008 119.08 154.808 119.052 154.624 118.995C154.441 118.935 154.283 118.847 154.149 118.73C154.016 118.613 153.913 118.468 153.839 118.295C153.766 118.122 153.729 117.92 153.729 117.69C153.729 117.56 153.751 117.432 153.794 117.305C153.838 117.175 153.908 117.052 154.004 116.935C154.104 116.818 154.233 116.708 154.389 116.605C154.546 116.502 154.738 116.412 154.964 116.335C155.194 116.258 155.461 116.197 155.764 116.15C156.068 116.1 156.414 116.07 156.804 116.06V115.76C156.804 115.417 156.731 115.163 156.584 115C156.438 114.833 156.226 114.75 155.949 114.75C155.749 114.75 155.583 114.773 155.449 114.82C155.319 114.867 155.204 114.92 155.104 114.98C155.004 115.037 154.913 115.088 154.829 115.135C154.749 115.182 154.659 115.205 154.559 115.205C154.473 115.205 154.399 115.183 154.339 115.14C154.279 115.093 154.231 115.04 154.194 114.98L153.974 114.585ZM160.408 117.67C160.548 117.84 160.699 117.96 160.863 118.03C161.029 118.1 161.204 118.135 161.387 118.135C161.578 118.135 161.748 118.102 161.898 118.035C162.051 117.965 162.181 117.858 162.288 117.715C162.394 117.568 162.476 117.383 162.533 117.16C162.589 116.933 162.618 116.663 162.618 116.35C162.618 115.787 162.524 115.38 162.338 115.13C162.151 114.877 161.883 114.75 161.533 114.75C161.296 114.75 161.089 114.805 160.913 114.915C160.736 115.022 160.568 115.173 160.408 115.37V117.67ZM160.408 114.5C160.614 114.283 160.843 114.112 161.093 113.985C161.346 113.855 161.634 113.79 161.958 113.79C162.254 113.79 162.521 113.848 162.758 113.965C162.998 114.082 163.201 114.25 163.368 114.47C163.538 114.687 163.668 114.95 163.758 115.26C163.848 115.57 163.893 115.918 163.893 116.305C163.893 116.722 163.841 117.1 163.738 117.44C163.634 117.78 163.486 118.072 163.293 118.315C163.103 118.555 162.873 118.742 162.603 118.875C162.333 119.008 162.033 119.075 161.703 119.075C161.543 119.075 161.398 119.058 161.268 119.025C161.138 118.995 161.018 118.952 160.908 118.895C160.798 118.838 160.696 118.77 160.603 118.69C160.513 118.607 160.426 118.515 160.343 118.415L160.288 118.76C160.268 118.847 160.233 118.908 160.183 118.945C160.136 118.982 160.071 119 159.988 119H159.173V111.57H160.408V114.5ZM166.096 111.57V119H164.861V111.57H166.096ZM170.632 115.845C170.632 115.685 170.608 115.535 170.562 115.395C170.518 115.252 170.452 115.127 170.362 115.02C170.272 114.913 170.157 114.83 170.017 114.77C169.88 114.707 169.72 114.675 169.537 114.675C169.18 114.675 168.898 114.777 168.692 114.98C168.488 115.183 168.358 115.472 168.302 115.845H170.632ZM168.277 116.59C168.297 116.853 168.343 117.082 168.417 117.275C168.49 117.465 168.587 117.623 168.707 117.75C168.827 117.873 168.968 117.967 169.132 118.03C169.298 118.09 169.482 118.12 169.682 118.12C169.882 118.12 170.053 118.097 170.197 118.05C170.343 118.003 170.47 117.952 170.577 117.895C170.687 117.838 170.782 117.787 170.862 117.74C170.945 117.693 171.025 117.67 171.102 117.67C171.205 117.67 171.282 117.708 171.332 117.785L171.687 118.235C171.55 118.395 171.397 118.53 171.227 118.64C171.057 118.747 170.878 118.833 170.692 118.9C170.508 118.963 170.32 119.008 170.127 119.035C169.937 119.062 169.752 119.075 169.572 119.075C169.215 119.075 168.883 119.017 168.577 118.9C168.27 118.78 168.003 118.605 167.777 118.375C167.55 118.142 167.372 117.855 167.242 117.515C167.112 117.172 167.047 116.775 167.047 116.325C167.047 115.975 167.103 115.647 167.217 115.34C167.33 115.03 167.492 114.762 167.702 114.535C167.915 114.305 168.173 114.123 168.477 113.99C168.783 113.857 169.128 113.79 169.512 113.79C169.835 113.79 170.133 113.842 170.407 113.945C170.68 114.048 170.915 114.2 171.112 114.4C171.308 114.597 171.462 114.84 171.572 115.13C171.685 115.417 171.742 115.745 171.742 116.115C171.742 116.302 171.722 116.428 171.682 116.495C171.642 116.558 171.565 116.59 171.452 116.59H168.277Z"
        fill="#939090" />
</svg>